HIERARCHY
ROOT hip
{
  OFFSET 0 0 0
  CHANNELS 6 Xposition Yposition Zposition Zrotation Yrotation Xrotation
  JOINT abdomen
  {
    OFFSET 0 20.6881 -0.73152
    CHANNELS 3 Zrotation Xrotation Yrotation
    JOINT chest
    {
      OFFSET 0 11.7043 -0.48768
      CHANNELS 3 Zrotation Xrotation Yrotation
      JOINT neck
      {
        OFFSET 0 22.1894 -2.19456
        CHANNELS 3 Zrotation Xrotation Yrotation
        JOINT head
        {
          OFFSET -0.24384 7.07133 1.2192
          CHANNELS 3 Zrotation Xrotation Yrotation
          JOINT leftEye
          {
            OFFSET 4.14528 8.04674 8.04672
            CHANNELS 3 Zrotation Xrotation Yrotation
            End Site
            {
              OFFSET 1 0 0
            }
          }
          JOINT rightEye
          {
            OFFSET -3.6576 8.04674 8.04672
            CHANNELS 3 Zrotation Xrotation Yrotation
            End Site
            {
              OFFSET 1 0 0
            }
          }
        }
      }
      JOINT rCollar
      {
        OFFSET -2.68224 19.2634 -4.8768
        CHANNELS 3 Zrotation Xrotation Yrotation
        JOINT rShldr
        {
          OFFSET -8.77824 -1.95073 1.46304
          CHANNELS 3 Zrotation Xrotation Yrotation
          JOINT rForeArm
          {
            OFFSET -28.1742 -1.7115 0.48768
            CHANNELS 3 Zrotation Xrotation Yrotation
            JOINT rHand
            {
              OFFSET -22.5879 0.773209 7.07136
              CHANNELS 3 Zrotation Xrotation Yrotation
              JOINT rThumb1
              {
                OFFSET -1.2192 -0.487915 3.41376
                CHANNELS 3 Zrotation Xrotation Yrotation
                JOINT rThumb2
                {
                  OFFSET -3.37035 -0.52449 3.41376
                  CHANNELS 3 Zrotation Xrotation Yrotation
                  End Site
                  {
                    OFFSET -1.78271 -1.18214 1.43049
                  }
                }
              }
              JOINT rIndex1
              {
                OFFSET -7.75947 0.938293 5.60832
                CHANNELS 3 Zrotation Xrotation Yrotation
                JOINT rIndex2
                {
                  OFFSET -2.54057 -0.884171 1.56538
                  CHANNELS 3 Zrotation Xrotation Yrotation
                  End Site
                  {
                    OFFSET -1.62519 -0.234802 1.16502
                  }
                }
              }
              JOINT rMid1
              {
                OFFSET -8.24714 1.18213 3.41376
                CHANNELS 3 Zrotation Xrotation Yrotation
                JOINT rMid2
                {
                  OFFSET -3.10165 -0.590103 1.0647
                  CHANNELS 3 Zrotation Xrotation Yrotation
                  End Site
                  {
                    OFFSET -2.48547 -0.328903 0.83742
                  }
                }
              }
              JOINT rRing1
              {
                OFFSET -8.82822 0.546677 1.51678
                CHANNELS 3 Zrotation Xrotation Yrotation
                JOINT rRing2
                {
                  OFFSET -2.60934 -0.819778 -0.0198488
                  CHANNELS 3 Zrotation Xrotation Yrotation
                  End Site
                  {
                    OFFSET -2.33842 -0.294052 0.168128
                  }
                }
              }
              JOINT rPinky1
              {
                OFFSET -8.27202 -0.0477905 -0.4584
                CHANNELS 3 Zrotation Xrotation Yrotation
                JOINT rPinky2
                {
                  OFFSET -1.82734 -0.647385 -0.700984
                  CHANNELS 3 Zrotation Xrotation Yrotation
                  End Site
                  {
                    OFFSET -1.69225 -0.51767 -0.607171
                  }
                }
              }
            }
          }
        }
      }
      JOINT lCollar
      {
        OFFSET 2.68224 19.2634 -4.8768
        CHANNELS 3 Zrotation Xrotation Yrotation
        JOINT lShldr
        {
          OFFSET 8.77824 -1.95073 1.46304
          CHANNELS 3 Zrotation Xrotation Yrotation
          JOINT lForeArm
          {
            OFFSET 28.1742 -1.7115 0.48768
            CHANNELS 3 Zrotation Xrotation Yrotation
            JOINT lHand
            {
              OFFSET 22.5879 0.773209 7.07136
              CHANNELS 3 Zrotation Xrotation Yrotation
              JOINT lThumb1
              {
                OFFSET 1.2192 -0.487915 3.41376
                CHANNELS 3 Zrotation Xrotation Yrotation
                JOINT lThumb2
                {
                  OFFSET 3.37035 -0.52449 3.41376
                  CHANNELS 3 Zrotation Xrotation Yrotation
                  End Site
                  {
                    OFFSET 1.78271 -1.18214 1.43049
                  }
                }
              }
              JOINT lIndex1
              {
                OFFSET 7.75947 0.938293 5.60832
                CHANNELS 3 Zrotation Xrotation Yrotation
                JOINT lIndex2
                {
                  OFFSET 2.54057 -0.884171 1.56538
                  CHANNELS 3 Zrotation Xrotation Yrotation
                  End Site
                  {
                    OFFSET 1.62519 -0.234802 1.16502
                  }
                }
              }
              JOINT lMid1
              {
                OFFSET 8.24714 1.18213 3.41376
                CHANNELS 3 Zrotation Xrotation Yrotation
                JOINT lMid2
                {
                  OFFSET 3.10165 -0.590103 1.0647
                  CHANNELS 3 Zrotation Xrotation Yrotation
                  End Site
                  {
                    OFFSET 2.48547 -0.328903 0.83742
                  }
                }
              }
              JOINT lRing1
              {
                OFFSET 8.82822 0.546677 1.51678
                CHANNELS 3 Zrotation Xrotation Yrotation
                JOINT lRing2
                {
                  OFFSET 2.60934 -0.819778 -0.0198488
                  CHANNELS 3 Zrotation Xrotation Yrotation
                  End Site
                  {
                    OFFSET 2.33842 -0.294052 0.168128
                  }
                }
              }
              JOINT lPinky1
              {
                OFFSET 8.27202 -0.0477905 -0.4584
                CHANNELS 3 Zrotation Xrotation Yrotation
                JOINT lPinky2
                {
                  OFFSET 1.82734 -0.647385 -0.700984
                  CHANNELS 3 Zrotation Xrotation Yrotation
                  End Site
                  {
                    OFFSET 1.69225 -0.51767 -0.607171
                  }
                }
              }
            }
          }
        }
      }
    }
  }
  JOINT rButtock
  {
    OFFSET -8.77824 4.35084 1.2192
    CHANNELS 3 Zrotation Xrotation Yrotation
    JOINT rThigh
    {
      OFFSET 0 -1.70687 -2.19456
      CHANNELS 3 Zrotation Xrotation Yrotation
      JOINT rShin
      {
        OFFSET 0 -36.8199 0.73152
        CHANNELS 3 Zrotation Xrotation Yrotation
        JOINT rFoot
        {
          OFFSET 0.73152 -45.1104 -5.12064
          CHANNELS 3 Zrotation Xrotation Yrotation
          End Site
          {
            OFFSET -1.1221 -3.69964 12.103
          }
        }
      }
    }
  }
  JOINT lButtock
  {
    OFFSET 8.77824 4.35084 1.2192
    CHANNELS 3 Zrotation Xrotation Yrotation
    JOINT lThigh
    {
      OFFSET 0 -1.70687 -2.19456
      CHANNELS 3 Zrotation Xrotation Yrotation
      JOINT lShin
      {
        OFFSET 0 -36.8199 0.73152
        CHANNELS 3 Zrotation Xrotation Yrotation
        JOINT lFoot
        {
          OFFSET -0.73152 -45.1104 -5.12064
          CHANNELS 3 Zrotation Xrotation Yrotation
          End Site
          {
            OFFSET 1.1221 -3.69964 12.103
          }
        }
      }
    }
  }
}
MOTION
Frames:	8
Frame Time:	0.00833333
54.9535 85.1388 57.7182 0.0 0.0 0.0 0.410589 -0.00336423 0.0117806 0.113459 -0.00539519 0.0196593 4.73121e-16 -1.59028e-15 3.72721e-17 1.46604e-15 3.18055e-15 1.10263e-16 -0.0 0.0 0.0 -0.0 0.0 0.0 2.47148e-16 -2.71776e-18 1.49089e-16 7.92984e-15 -2.85753e-16 1.19271e-15 9.46215e-14 -3.02153e-14 6.36111e-15 1.06371e-12 1.54555e-14 6.04305e-14 2.51102e-12 -2.9063e-14 1.62208e-13 4.34265e-12 -5.40694e-14 2.74323e-13 2.519e-12 -2.62396e-14 1.52667e-13 7.73091 5.47488 0.417314 2.5114e-12 -2.83268e-14 1.62208e-13 2.90554 0.965183 0.102902 2.51789e-12 -2.89232e-14 1.63003e-13 10.2786 0.731801 0.0259123 2.50986e-12 -2.98177e-14 1.7175e-13 2.22167 -0.733487 -0.20892 2.49829e-16 -2.52363e-18 -1.49089e-16 2.80803e-15 -2.67117e-16 -3.97569e-16 8.86083e-14 2.88238e-14 3.18055e-15 1.06511e-12 -2.59911e-14 7.95139e-14 2.50425e-12 1.33931e-14 1.65389e-13 4.31522e-12 2.54444e-14 2.8625e-13 2.49674e-12 1.74931e-14 1.65389e-13 -7.73091 5.47488 -0.417314 2.50245e-12 1.44119e-14 1.65389e-13 -2.90554 0.965183 -0.102902 2.48934e-12 1.38155e-14 1.62208e-13 -10.2786 0.731801 -0.0259123 2.50588e-12 1.51076e-14 1.59028e-13 -2.22167 -0.733487 0.20892 -2.03217e-16 0.0 -3.88251e-19 0.770616 -4.17183 -0.0656819 -0.00265495 2.00554 -0.018271 -0.461841 2.16687 0.0961024 2.03217e-16 0.0 3.88251e-19 -0.143224 -2.55995 0.0260682 0.00716312 -0.914089 0.0621712 0.453762 3.47457 -0.121223
55.4628 83.3893 52.1537 179.147 -0.5476 -152.933 -1.61483 -8.33324 -0.361683 0.94609 3.57104 -0.181347 -1.1159 4.41391 0.0340537 2.71424 -5.4896 0.323538 -0.0 0.0 0.0 -0.0 0.0 0.0 6.72568e-15 -1.42245e-13 -3.54683e-14 23.1222 2.28974 -0.21914 -3.99574 -1.77315 6.28616 0.00359933 1.33087 0.186859 -1.8203e-10 -6.35913e-10 4.51756e-10 -3.12381e-10 -1.10029e-09 7.80425e-10 -1.82023e-10 -6.35903e-10 4.51742e-10 7.73091 5.47488 0.417314 -1.8203e-10 -6.35912e-10 4.51752e-10 2.90554 0.965183 0.102902 -1.82023e-10 -6.35912e-10 4.51754e-10 10.2786 0.731801 0.0259123 -1.82029e-10 -6.35913e-10 4.51761e-10 2.22167 -0.733487 -0.20892 6.75796e-15 -1.42245e-13 -3.57812e-14 -21.2003 5.07291 -1.38535 2.421 -0.88708 -3.98068 -0.0223286 3.31561 -0.463164 5.62468e-10 -1.34783e-11 -8.63668e-10 9.62507e-10 -2.71911e-11 -1.49696e-09 5.6246e-10 -1.34753e-11 -8.63667e-10 -7.73091 5.47488 -0.417314 5.62465e-10 -1.34784e-11 -8.63671e-10 -2.90554 0.965183 -0.102902 5.62452e-10 -1.34774e-11 -8.63672e-10 -10.2786 0.731801 -0.0259123 5.62468e-10 -1.34763e-11 -8.63673e-10 -2.22167 -0.733487 0.20892 -2.03217e-16 0.0 -3.88251e-19 -0.382137 -11.5862 2.59212 0.00373478 4.46537 0.0506182 -0.668953 -2.8573 -2.26094 2.03217e-16 0.0 3.88251e-19 0.450107 -10.1163 -2.80883 0.00566031 1.69684 0.016237 0.506392 1.45507 1.31026
55.4606 83.3918 52.1494 179.134 -0.5709 -152.951 -3.88192 -17.1366 -0.783392 1.85505 7.35126 -0.39642 -2.30131 9.08078 0.0708469 5.65204 -11.2922 0.675396 -0.0 0.0 0.0 -0.0 0.0 0.0 1.42429e-14 -2.98476e-13 -7.49605e-14 47.585 4.7086 -0.453074 -7.79937 -3.57639 12.9505 -0.0020456 2.73851 0.38484 -3.96783e-10 -1.3312e-09 9.4482e-10 -6.81133e-10 -2.30331e-09 1.63229e-09 -3.96777e-10 -1.33118e-09 9.44802e-10 7.73091 5.47488 0.417314 -3.96783e-10 -1.3312e-09 9.44811e-10 2.90554 0.965183 0.102902 -3.96775e-10 -1.3312e-09 9.44816e-10 10.2786 0.731801 0.0259123 -3.9678e-10 -1.3312e-09 9.44821e-10 2.22167 -0.733487 -0.20892 1.43084e-14 -2.98476e-13 -7.52897e-14 -43.3411 10.4225 -2.88632 4.84568 -1.81005 -8.19026 0.0127335 6.82081 -0.958098 1.17032e-09 -3.24891e-11 -1.82189e-09 2.00243e-09 -6.43605e-11 -3.15769e-09 1.17032e-09 -3.24873e-11 -1.82189e-09 -7.73091 5.47488 -0.417314 1.17032e-09 -3.24905e-11 -1.8219e-09 -2.90554 0.965183 -0.102902 1.17031e-09 -3.24879e-11 -1.82189e-09 -10.2786 0.731801 -0.0259123 1.17032e-09 -3.2487e-11 -1.82189e-09 -2.22167 -0.733487 0.20892 -2.03217e-16 0.0 -3.88251e-19 -0.814127 -19.361 5.61185 0.00426075 7.06619 0.124053 -1.34068 -8.14495 -4.79454 2.03217e-16 0.0 3.88251e-19 0.224012 -18.0349 -6.0119 0.00859899 4.45794 -0.0324349 0.671655 -0.67792 2.8226
55.4519 83.3911 52.1473 179.094 -0.5855 -152.962 -6.01982 -24.9886 -1.21048 2.68775 10.7234 -0.592653 -3.36379 13.2417 0.10464 8.33546 -16.4667 1.00749 -0.0 0.0 0.0 -0.0 0.0 0.0 1.96827e-14 -4.26729e-13 -1.06703e-13 69.4194 6.86883 -0.661643 -10.8396 -5.06384 18.9261 -0.0152977 3.99243 0.561789 -5.51112e-10 -1.90768e-09 1.35494e-09 -9.45828e-10 -3.30077e-09 2.34073e-09 -5.51106e-10 -1.90766e-09 1.35492e-09 7.73091 5.47488 0.417314 -5.51113e-10 -1.90768e-09 1.35493e-09 2.90554 0.965183 0.102902 -5.51104e-10 -1.90768e-09 1.35494e-09 10.2786 0.731801 0.0259123 -5.51108e-10 -1.90768e-09 1.35494e-09 2.22167 -0.733487 -0.20892 1.97742e-14 -4.26728e-13 -1.07046e-13 -62.8432 15.1825 -4.28977 6.89587 -2.60991 -11.9532 0.0959005 9.94421 -1.40833 1.68239e-09 -4.04617e-11 -2.59134e-09 2.87889e-09 -8.16242e-11 -4.49145e-09 1.68239e-09 -4.04608e-11 -2.59133e-09 -7.73091 5.47488 -0.417314 1.68239e-09 -4.0464e-11 -2.59134e-09 -2.90554 0.965183 -0.102902 1.68238e-09 -4.046e-11 -2.59134e-09 -10.2786 0.731801 -0.0259123 1.68239e-09 -4.04592e-11 -2.59134e-09 -2.22167 -0.733487 0.20892 -2.03217e-16 0.0 -3.88251e-19 -0.422618 -26.1897 8.64175 -0.00144235 9.38497 0.190463 -2.34492 -12.8154 -7.14535 2.03217e-16 0.0 3.88251e-19 -0.799159 -24.9786 -9.21595 0.0152588 6.9187 -0.0761916 0.914183 -2.57596 4.17573
55.4452 83.3936 52.146 179.062 -0.589 -152.967 -7.57594 -30.4663 -1.55492 3.27547 13.0759 -0.732888 -4.10733 16.1379 0.128555 10.2447 -20.0727 1.2552 -0.0 0.0 0.0 -0.0 0.0 0.0 1.99288e-14 -4.85034e-13 -1.19072e-13 84.6447 8.38286 -0.802744 -12.7724 -6.00524 23.1151 -0.0290829 4.8622 0.684999 -5.54382e-10 -2.18715e-09 1.55771e-09 -9.5038e-10 -3.78436e-09 2.69059e-09 -5.54377e-10 -2.18713e-09 1.55769e-09 7.73091 5.47488 0.417314 -5.54383e-10 -2.18715e-09 1.5577e-09 2.90554 0.965183 0.102902 -5.54374e-10 -2.18715e-09 1.55771e-09 10.2786 0.731801 0.0259123 -5.54377e-10 -2.18715e-09 1.55771e-09 2.22167 -0.733487 -0.20892 2.00282e-14 -4.85034e-13 -1.1942e-13 -76.2901 18.5026 -5.32273 8.26715 -3.15072 -14.589 0.183486 12.1156 -1.72884 1.955e-09 -2.0839e-11 -2.88885e-09 3.34667e-09 -4.91237e-11 -5.00774e-09 1.95499e-09 -2.08382e-11 -2.88884e-09 -7.73091 5.47488 -0.417314 1.95499e-09 -2.0841e-11 -2.88886e-09 -2.90554 0.965183 -0.102902 1.95498e-09 -2.08361e-11 -2.88885e-09 -10.2786 0.731801 -0.0259123 1.95499e-09 -2.08354e-11 -2.88885e-09 -2.22167 -0.733487 0.20892 -2.03217e-16 0.0 -3.88251e-19 0.363599 -30.8614 11.0344 -0.00997237 10.9987 0.237467 -3.28267 -16.0315 -8.86541 2.03217e-16 0.0 3.88251e-19 -2.03275 -29.7179 -11.746 0.0222988 8.62864 -0.106981 1.13665 -3.89598 5.12378
55.4467 83.3953 52.1507 179.069 -0.6038 -152.943 -8.17143 -32.6256 -1.70685 3.4927 14.0038 -0.788745 -4.39871 17.2621 0.136882 11.0037 -21.4849 1.35894 -0.0 0.0 0.0 -0.0 0.0 0.0 1.16657e-14 -4.34605e-13 -1.00366e-13 90.6024 8.99148 -0.850459 -13.4929 -6.35085 24.768 -0.0354542 5.19904 0.732842 -3.20535e-10 -2.02289e-09 1.45264e-09 -5.46454e-10 -3.50028e-09 2.50803e-09 -3.2053e-10 -2.02287e-09 1.45262e-09 7.73091 5.47488 0.417314 -3.20536e-10 -2.02289e-09 1.45263e-09 2.90554 0.965183 0.102902 -3.20527e-10 -2.02289e-09 1.45263e-09 10.2786 0.731801 0.0259123 -3.20532e-10 -2.02289e-09 1.45264e-09 2.22167 -0.733487 -0.20892 1.17427e-14 -4.34604e-13 -1.00712e-13 -81.5201 19.8229 -5.74298 8.79885 -3.36223 -15.6383 0.224724 12.9693 -1.85693 1.85465e-09 2.63035e-11 -2.47158e-09 3.17776e-09 3.40471e-11 -4.28582e-09 1.85464e-09 2.63058e-11 -2.47157e-09 -7.73091 5.47488 -0.417314 1.85465e-09 2.6304e-11 -2.47159e-09 -2.90554 0.965183 -0.102902 1.85464e-09 2.63089e-11 -2.47158e-09 -10.2786 0.731801 -0.0259123 1.85465e-09 2.63097e-11 -2.47158e-09 -2.22167 -0.733487 0.20892 -2.03217e-16 0.0 -3.88251e-19 0.823973 -32.6717 12.0423 -0.0172181 11.622 0.256059 -3.7069 -17.278 -9.57019 2.03217e-16 0.0 3.88251e-19 -2.62121 -31.5518 -12.8258 0.0258163 9.28739 -0.119036 1.23598 -4.41554 5.49467
55.4565 83.3957 52.1612 179.114 -0.6324 -152.891 -8.04105 -32.4158 -1.69468 3.43942 13.9141 -0.782399 -4.36586 17.1208 0.133575 10.9239 -21.3307 1.35179 -0.0 0.0 0.0 -0.0 0.0 0.0 -2.61636e-15 -3.07024e-13 -5.96509e-14 89.9366 8.95349 -0.830476 -13.4215 -6.31886 24.5996 -0.0346331 5.15501 0.726587 8.14608e-11 -1.54301e-09 1.12851e-09 1.47134e-10 -2.67017e-09 1.94662e-09 8.1464e-11 -1.543e-09 1.1285e-09 7.73091 5.47488 0.417314 8.14586e-11 -1.54301e-09 1.12851e-09 2.90554 0.965183 0.102902 8.14669e-11 -1.54301e-09 1.12851e-09 10.2786 0.731801 0.0259123 8.14604e-11 -1.54301e-09 1.12851e-09 2.22167 -0.733487 -0.20892 -2.58329e-15 -3.07021e-13 -5.99895e-14 -80.9456 19.7228 -5.69716 8.75661 -3.34842 -15.5525 0.220224 12.8817 -1.84371 1.48971e-09 9.36321e-11 -1.54633e-09 2.55714e-09 1.54316e-10 -2.68393e-09 1.4897e-09 9.3637e-11 -1.54632e-09 -7.73091 5.47488 -0.417314 1.4897e-09 9.36368e-11 -1.54633e-09 -2.90554 0.965183 -0.102902 1.48969e-09 9.3641e-11 -1.54633e-09 -10.2786 0.731801 -0.0259123 1.4897e-09 9.36421e-11 -1.54633e-09 -2.22167 -0.733487 0.20892 -2.03217e-16 0.0 -3.88251e-19 0.814932 -32.4877 11.9089 -0.0221566 11.538 0.254012 -3.66136 -17.138 -9.509 2.03217e-16 0.0 3.88251e-19 -2.49802 -31.3668 -12.7112 0.0258805 9.1953 -0.117529 1.22522 -4.36569 5.45065
55.4657 83.395 52.1656 179.157 -0.6696 -152.87 -7.62718 -31.2545 -1.61294 3.28195 13.4132 -0.750464 -4.20373 16.4751 0.125688 10.5076 -20.5489 1.29978 -0.0 0.0 0.0 -0.0 0.0 0.0 -1.73254e-14 -1.65875e-13 -1.6456e-14 86.6181 8.6585 -0.777164 -13.0304 -6.13367 23.6965 -0.0308552 4.95102 0.697616 5.09703e-10 -9.81554e-10 7.44842e-10 8.8574e-10 -1.69883e-09 1.28234e-09 5.09705e-10 -9.81549e-10 7.4483e-10 7.73091 5.47488 0.417314 5.097e-10 -9.81552e-10 7.44847e-10 2.90554 0.965183 0.102902 5.09707e-10 -9.81551e-10 7.44843e-10 10.2786 0.731801 0.0259123 5.09699e-10 -9.81549e-10 7.44849e-10 2.22167 -0.733487 -0.20892 -1.73365e-14 -1.65871e-13 -1.67794e-14 -78.0467 19.0693 -5.46629 8.48643 -3.24524 -15.0151 0.1967 12.3961 -1.77081 1.07923e-09 1.86817e-10 -5.04393e-10 1.85911e-09 3.19823e-10 -8.80075e-10 1.07923e-09 1.86825e-10 -5.04383e-10 -7.73091 5.47488 -0.417314 1.07924e-09 1.86826e-10 -5.04395e-10 -2.90554 0.965183 -0.102902 1.07922e-09 1.86829e-10 -5.04392e-10 -10.2786 0.731801 -0.0259123 1.07923e-09 1.8683e-10 -5.04392e-10 -2.22167 -0.733487 0.20892 -2.03217e-16 0.0 -3.88251e-19 0.615719 -31.5057 11.3244 -0.0253251 11.1765 0.243775 -3.42761 -16.444 -9.13921 2.03217e-16 0.0 3.88251e-19 -2.09574 -30.3707 -12.119 0.0246394 8.80294 -0.11059 1.17081 -4.08652 5.24362
